<mxfile host="app.diagrams.net" modified="2020-11-12T13:02:25.779Z" agent="5.0 (Windows NT 10.0; Win64; x64) AppleWebKit/537.36 (KHTML, like Gecko) Chrome/86.0.4240.183 Safari/537.36" etag="kEp2hpu9vc_ixHg2WC0q" version="13.9.3" type="github" pages="2">
  <diagram id="S4_tAUq3dwSfm7Xs8XZK" name="Page-1">
    <mxGraphModel dx="3280" dy="2577" grid="0" gridSize="10" guides="1" tooltips="1" connect="1" arrows="1" fold="1" page="0" pageScale="1" pageWidth="850" pageHeight="1100" math="0" shadow="0">
      <root>
        <mxCell id="0" />
        <mxCell id="1" parent="0" />
        <mxCell id="lF-mWRHP8wNzjvut_HYc-54" value="&amp;lt;&amp;lt;include&amp;gt;&amp;gt;" style="edgeStyle=none;html=1;endArrow=open;verticalAlign=bottom;dashed=1;labelBackgroundColor=none;" edge="1" parent="1">
          <mxGeometry width="160" relative="1" as="geometry">
            <mxPoint x="-250" y="-600" as="sourcePoint" />
            <mxPoint x="-90" y="-600" as="targetPoint" />
          </mxGeometry>
        </mxCell>
        <mxCell id="lF-mWRHP8wNzjvut_HYc-1" value="" style="rounded=0;whiteSpace=wrap;html=1;strokeWidth=3;fontSize=20;labelBackgroundColor=#ffffff;" vertex="1" parent="1">
          <mxGeometry x="-407" y="-929" width="880" height="829" as="geometry" />
        </mxCell>
        <mxCell id="lF-mWRHP8wNzjvut_HYc-2" value="&lt;span style=&quot;font-size: 18px&quot;&gt;Customer&lt;/span&gt;" style="shape=umlActor;verticalLabelPosition=bottom;verticalAlign=top;html=1;labelBackgroundColor=#ffffff;" vertex="1" parent="1">
          <mxGeometry x="-637" y="-639" width="30" height="60" as="geometry" />
        </mxCell>
        <mxCell id="lF-mWRHP8wNzjvut_HYc-3" value="&lt;font style=&quot;font-size: 18px&quot;&gt;Waiter&lt;/font&gt;" style="shape=umlActor;verticalLabelPosition=bottom;verticalAlign=top;html=1;labelBackgroundColor=#ffffff;" vertex="1" parent="1">
          <mxGeometry x="550" y="-349" width="30" height="60" as="geometry" />
        </mxCell>
        <mxCell id="lF-mWRHP8wNzjvut_HYc-4" value="&lt;font style=&quot;font-size: 24px&quot;&gt;Configure CMS&lt;/font&gt;" style="ellipse;whiteSpace=wrap;html=1;labelBackgroundColor=#ffffff;" vertex="1" parent="1">
          <mxGeometry x="-242" y="-859" width="190" height="70" as="geometry" />
        </mxCell>
        <mxCell id="lF-mWRHP8wNzjvut_HYc-5" value="&lt;font style=&quot;font-size: 20px&quot;&gt;Pay&lt;/font&gt;" style="ellipse;whiteSpace=wrap;html=1;labelBackgroundColor=#ffffff;" vertex="1" parent="1">
          <mxGeometry x="-192" y="-490" width="140" height="70" as="geometry" />
        </mxCell>
        <mxCell id="lF-mWRHP8wNzjvut_HYc-6" value="&lt;font style=&quot;font-size: 18px&quot;&gt;Order food / Drink&lt;/font&gt;" style="ellipse;whiteSpace=wrap;html=1;labelBackgroundColor=#ffffff;" vertex="1" parent="1">
          <mxGeometry x="20" y="-760" width="208" height="72" as="geometry" />
        </mxCell>
        <mxCell id="lF-mWRHP8wNzjvut_HYc-7" value="&lt;font style=&quot;font-size: 18px&quot;&gt;System Admin&lt;/font&gt;" style="shape=umlActor;html=1;verticalLabelPosition=bottom;verticalAlign=top;align=center;strokeWidth=3;labelBackgroundColor=#ffffff;" vertex="1" parent="1">
          <mxGeometry x="-632" y="-839" width="30" height="60" as="geometry" />
        </mxCell>
        <mxCell id="lF-mWRHP8wNzjvut_HYc-9" value="&lt;font style=&quot;font-size: 20px&quot;&gt;Card payment&lt;/font&gt;" style="ellipse;whiteSpace=wrap;html=1;strokeWidth=3;labelBackgroundColor=#ffffff;" vertex="1" parent="1">
          <mxGeometry x="-300" y="-240" width="140" height="70" as="geometry" />
        </mxCell>
        <mxCell id="lF-mWRHP8wNzjvut_HYc-12" value="&lt;font style=&quot;font-size: 20px&quot;&gt;Visit &lt;br&gt;Website&lt;/font&gt;" style="ellipse;whiteSpace=wrap;html=1;strokeWidth=3;labelBackgroundColor=#ffffff;" vertex="1" parent="1">
          <mxGeometry x="-204" y="-709" width="140" height="70" as="geometry" />
        </mxCell>
        <mxCell id="lF-mWRHP8wNzjvut_HYc-13" value="&lt;span style=&quot;font-size: 20px&quot;&gt;Food status&lt;/span&gt;" style="ellipse;whiteSpace=wrap;html=1;strokeWidth=3;labelBackgroundColor=#ffffff;" vertex="1" parent="1">
          <mxGeometry x="238" y="-440" width="140" height="70" as="geometry" />
        </mxCell>
        <mxCell id="lF-mWRHP8wNzjvut_HYc-15" value="&lt;font style=&quot;font-size: 18px&quot;&gt;Casher&lt;/font&gt;" style="shape=umlActor;html=1;verticalLabelPosition=bottom;verticalAlign=top;align=center;strokeWidth=3;labelBackgroundColor=#ffffff;" vertex="1" parent="1">
          <mxGeometry x="-632" y="-349" width="30" height="60" as="geometry" />
        </mxCell>
        <mxCell id="lF-mWRHP8wNzjvut_HYc-17" value="" style="endArrow=none;html=1;entryX=0;entryY=0.5;entryDx=0;entryDy=0;labelBackgroundColor=#ffffff;" edge="1" parent="1" target="lF-mWRHP8wNzjvut_HYc-5">
          <mxGeometry width="50" height="50" relative="1" as="geometry">
            <mxPoint x="-582" y="-309" as="sourcePoint" />
            <mxPoint x="158" y="-669" as="targetPoint" />
          </mxGeometry>
        </mxCell>
        <mxCell id="lF-mWRHP8wNzjvut_HYc-20" value="" style="edgeStyle=none;html=1;endArrow=none;verticalAlign=bottom;fontSize=20;labelBackgroundColor=#ffffff;" edge="1" parent="1">
          <mxGeometry width="160" relative="1" as="geometry">
            <mxPoint x="-582" y="-799" as="sourcePoint" />
            <mxPoint x="-240" y="-824" as="targetPoint" />
          </mxGeometry>
        </mxCell>
        <mxCell id="lF-mWRHP8wNzjvut_HYc-22" value="" style="edgeStyle=none;html=1;endArrow=none;verticalAlign=bottom;fontSize=20;labelBackgroundColor=#ffffff;entryX=0;entryY=0.5;entryDx=0;entryDy=0;" edge="1" parent="1" target="lF-mWRHP8wNzjvut_HYc-5">
          <mxGeometry width="160" relative="1" as="geometry">
            <mxPoint x="-587" y="-599" as="sourcePoint" />
            <mxPoint x="-262" y="-409" as="targetPoint" />
          </mxGeometry>
        </mxCell>
        <mxCell id="lF-mWRHP8wNzjvut_HYc-23" value="CMS" style="text;html=1;strokeColor=none;fillColor=none;align=center;verticalAlign=middle;whiteSpace=wrap;rounded=0;fontSize=20;labelBackgroundColor=#ffffff;" vertex="1" parent="1">
          <mxGeometry x="358" y="-879" width="40" height="20" as="geometry" />
        </mxCell>
        <mxCell id="lF-mWRHP8wNzjvut_HYc-26" value="" style="edgeStyle=none;html=1;endArrow=none;verticalAlign=bottom;fontSize=20;entryX=0;entryY=0.5;entryDx=0;entryDy=0;labelBackgroundColor=#ffffff;" edge="1" parent="1" target="lF-mWRHP8wNzjvut_HYc-12">
          <mxGeometry width="160" relative="1" as="geometry">
            <mxPoint x="-590" y="-600" as="sourcePoint" />
            <mxPoint x="-292" y="-129" as="targetPoint" />
          </mxGeometry>
        </mxCell>
        <mxCell id="lF-mWRHP8wNzjvut_HYc-32" value="&lt;font style=&quot;font-size: 18px&quot;&gt;Chef&lt;/font&gt;" style="shape=umlActor;verticalLabelPosition=bottom;verticalAlign=top;html=1;labelBackgroundColor=#ffffff;" vertex="1" parent="1">
          <mxGeometry x="550" y="-540" width="30" height="60" as="geometry" />
        </mxCell>
        <mxCell id="lF-mWRHP8wNzjvut_HYc-33" value="" style="edgeStyle=none;html=1;endArrow=none;verticalAlign=bottom;fontSize=20;exitX=1;exitY=0.5;exitDx=0;exitDy=0;labelBackgroundColor=#ffffff;entryX=0;entryY=1;entryDx=0;entryDy=0;entryPerimeter=0;" edge="1" parent="1" source="lF-mWRHP8wNzjvut_HYc-13" target="lF-mWRHP8wNzjvut_HYc-32">
          <mxGeometry width="160" relative="1" as="geometry">
            <mxPoint x="408" y="-354" as="sourcePoint" />
            <mxPoint x="530" y="-670" as="targetPoint" />
          </mxGeometry>
        </mxCell>
        <mxCell id="lF-mWRHP8wNzjvut_HYc-42" value="&lt;font style=&quot;font-size: 20px&quot;&gt;Cash payment&lt;/font&gt;" style="ellipse;whiteSpace=wrap;html=1;strokeWidth=3;labelBackgroundColor=#ffffff;" vertex="1" parent="1">
          <mxGeometry x="-64" y="-240" width="140" height="70" as="geometry" />
        </mxCell>
        <mxCell id="lF-mWRHP8wNzjvut_HYc-45" value="" style="edgeStyle=none;html=1;endSize=12;endArrow=block;endFill=0;labelBackgroundColor=#ffffff;entryX=0.5;entryY=1;entryDx=0;entryDy=0;" edge="1" parent="1" target="lF-mWRHP8wNzjvut_HYc-5">
          <mxGeometry width="160" relative="1" as="geometry">
            <mxPoint x="-120" y="-340" as="sourcePoint" />
            <mxPoint x="-67" y="-389" as="targetPoint" />
          </mxGeometry>
        </mxCell>
        <mxCell id="lF-mWRHP8wNzjvut_HYc-46" value="" style="edgeStyle=none;html=1;endArrow=none;verticalAlign=bottom;fontSize=20;labelBackgroundColor=#ffffff;exitX=0.5;exitY=0;exitDx=0;exitDy=0;" edge="1" parent="1" source="lF-mWRHP8wNzjvut_HYc-9">
          <mxGeometry width="160" relative="1" as="geometry">
            <mxPoint x="-480" y="-389" as="sourcePoint" />
            <mxPoint x="-120" y="-340" as="targetPoint" />
          </mxGeometry>
        </mxCell>
        <mxCell id="lF-mWRHP8wNzjvut_HYc-47" value="" style="edgeStyle=none;html=1;endArrow=none;verticalAlign=bottom;fontSize=20;labelBackgroundColor=#ffffff;entryX=0.5;entryY=0;entryDx=0;entryDy=0;" edge="1" parent="1" target="lF-mWRHP8wNzjvut_HYc-42">
          <mxGeometry width="160" relative="1" as="geometry">
            <mxPoint x="-120" y="-340" as="sourcePoint" />
            <mxPoint x="178" y="-400" as="targetPoint" />
          </mxGeometry>
        </mxCell>
        <mxCell id="lF-mWRHP8wNzjvut_HYc-52" value="" style="edgeStyle=none;html=1;endArrow=none;verticalAlign=bottom;fontSize=20;labelBackgroundColor=#ffffff;exitX=1;exitY=0.5;exitDx=0;exitDy=0;" edge="1" parent="1" source="lF-mWRHP8wNzjvut_HYc-13">
          <mxGeometry width="160" relative="1" as="geometry">
            <mxPoint x="90" y="-355" as="sourcePoint" />
            <mxPoint x="540" y="-310" as="targetPoint" />
          </mxGeometry>
        </mxCell>
        <mxCell id="lF-mWRHP8wNzjvut_HYc-56" value="&amp;lt;&amp;lt;include&amp;gt;&amp;gt;" style="edgeStyle=none;html=1;endArrow=open;verticalAlign=bottom;dashed=1;labelBackgroundColor=none;exitX=0;exitY=0.5;exitDx=0;exitDy=0;entryX=1;entryY=0.5;entryDx=0;entryDy=0;" edge="1" parent="1" source="lF-mWRHP8wNzjvut_HYc-6" target="lF-mWRHP8wNzjvut_HYc-12">
          <mxGeometry width="160" relative="1" as="geometry">
            <mxPoint x="-220" y="-540" as="sourcePoint" />
            <mxPoint x="-60" y="-540" as="targetPoint" />
          </mxGeometry>
        </mxCell>
        <mxCell id="lF-mWRHP8wNzjvut_HYc-57" value="&lt;font style=&quot;font-size: 18px&quot;&gt;Receive order&lt;/font&gt;" style="ellipse;whiteSpace=wrap;html=1;labelBackgroundColor=#ffffff;" vertex="1" parent="1">
          <mxGeometry x="250" y="-579" width="140" height="70" as="geometry" />
        </mxCell>
        <mxCell id="lF-mWRHP8wNzjvut_HYc-58" value="" style="edgeStyle=none;html=1;endArrow=none;verticalAlign=bottom;fontSize=20;labelBackgroundColor=#ffffff;entryX=0;entryY=1;entryDx=0;entryDy=0;entryPerimeter=0;exitX=1;exitY=0.5;exitDx=0;exitDy=0;" edge="1" parent="1" source="lF-mWRHP8wNzjvut_HYc-57" target="lF-mWRHP8wNzjvut_HYc-32">
          <mxGeometry width="160" relative="1" as="geometry">
            <mxPoint x="380" y="-644" as="sourcePoint" />
            <mxPoint x="540" y="-720" as="targetPoint" />
          </mxGeometry>
        </mxCell>
        <mxCell id="lF-mWRHP8wNzjvut_HYc-59" value="&lt;font style=&quot;font-size: 18px&quot; face=&quot;Times New Roman&quot;&gt;Notify the waiter&lt;/font&gt;" style="ellipse;whiteSpace=wrap;html=1;labelBackgroundColor=#ffffff;" vertex="1" parent="1">
          <mxGeometry x="43" y="-615" width="170" height="70" as="geometry" />
        </mxCell>
        <mxCell id="lF-mWRHP8wNzjvut_HYc-60" value="&lt;span style=&quot;font-size: 18px&quot;&gt;Get notified from customer.&lt;/span&gt;" style="ellipse;whiteSpace=wrap;html=1;labelBackgroundColor=#ffffff;" vertex="1" parent="1">
          <mxGeometry x="141" y="-300" width="239" height="70" as="geometry" />
        </mxCell>
        <mxCell id="lF-mWRHP8wNzjvut_HYc-62" value="" style="edgeStyle=none;html=1;endArrow=none;verticalAlign=bottom;fontSize=20;labelBackgroundColor=#ffffff;exitX=1;exitY=0.5;exitDx=0;exitDy=0;" edge="1" parent="1" source="lF-mWRHP8wNzjvut_HYc-60">
          <mxGeometry width="160" relative="1" as="geometry">
            <mxPoint x="388" y="-395" as="sourcePoint" />
            <mxPoint x="540" y="-310" as="targetPoint" />
          </mxGeometry>
        </mxCell>
        <mxCell id="lF-mWRHP8wNzjvut_HYc-63" value="&amp;lt;&amp;lt;extend&amp;gt;&amp;gt;" style="edgeStyle=none;html=1;startArrow=open;endArrow=none;startSize=12;verticalAlign=bottom;dashed=1;labelBackgroundColor=none;entryX=0;entryY=0.5;entryDx=0;entryDy=0;exitX=0;exitY=0.5;exitDx=0;exitDy=0;" edge="1" parent="1" source="lF-mWRHP8wNzjvut_HYc-59">
          <mxGeometry width="160" relative="1" as="geometry">
            <mxPoint x="20" y="-470" as="sourcePoint" />
            <mxPoint x="-60" y="-670" as="targetPoint" />
          </mxGeometry>
        </mxCell>
      </root>
    </mxGraphModel>
  </diagram>
  <diagram name="Page-2" id="dIyGbm9W6CNZ4wsLXcw3">
    <mxGraphModel dx="868" dy="516" grid="1" gridSize="10" guides="1" tooltips="1" connect="1" arrows="1" fold="1" page="1" pageScale="1" pageWidth="850" pageHeight="1100" math="0" shadow="0">
      <root>
        <mxCell id="-84nIBpLqqL3KELaVt5q-0" />
        <mxCell id="-84nIBpLqqL3KELaVt5q-1" parent="-84nIBpLqqL3KELaVt5q-0" />
      </root>
    </mxGraphModel>
  </diagram>
</mxfile>
